<svg width="96" height="55" viewBox="0 0 96 55" fill="none" xmlns="http://www.w3.org/2000/svg">
<path d="M46.8218 55C48.819 55 50.0195 52.7842 48.9288 51.1112L35.72 30.8501C34.5254 29.0176 31.8343 29.0386 30.6685 30.8896L19.4054 48.772C18.8561 49.6441 17.8976 50.1732 16.8669 50.1732H12.2292C9.8607 50.1732 8.42628 47.5573 9.69974 45.5602L30.6308 12.736C31.8109 10.8854 34.5136 10.8869 35.6916 12.7388L60.0596 51.0455C61.2345 52.8924 63.9277 52.9 65.113 51.0598L95.0214 4.62447C96.3073 2.62806 94.874 0 92.4993 0H76.7473C75.7346 0 74.7902 0.510938 74.2361 1.35864L65.3612 14.9366C64.1737 16.7534 61.5095 16.7469 60.3309 14.9243L51.4115 1.1316C50.9553 0.426053 50.1724 0 49.3322 0V0C47.3732 0 46.1899 2.16696 47.2489 3.81497L60.3139 24.146C61.4945 25.9831 64.1796 25.9836 65.3609 24.147L76.9835 6.07689C77.5356 5.21857 78.4861 4.69977 79.5067 4.69977H83.3863C85.7532 4.69977 87.1879 7.31254 85.9177 9.30975L65.3391 41.6657C64.1677 43.5076 61.4838 43.5216 60.2932 41.6919L35.7002 3.89837C34.5112 2.07129 31.8323 2.08206 30.6581 3.91864L0.951149 50.384C-0.325531 52.3809 1.1086 55 3.47873 55H19.4832C20.5128 55 21.4705 54.472 22.0201 53.6013L30.6537 39.9231C31.8241 38.0688 34.5234 38.0557 35.7118 39.8984L44.708 53.848C45.1712 54.5661 45.9673 55 46.8218 55V55Z" fill="#ABABAB"/>
</svg>
